<mxfile host="app.diagrams.net" modified="2024-02-22T13:26:30.706Z" agent="Mozilla/5.0 (Windows NT 10.0; Win64; x64) AppleWebKit/537.36 (KHTML, like Gecko) Chrome/121.0.0.0 Safari/537.36 Edg/121.0.0.0" etag="oirPgMlg-lNSDzRMcOm9" version="23.1.5" type="device">
  <diagram name="PÃ¡gina-1" id="1V8X9FXUli2qyPaSxkRq">
    <mxGraphModel dx="1310" dy="708" grid="1" gridSize="10" guides="1" tooltips="1" connect="1" arrows="1" fold="1" page="1" pageScale="1" pageWidth="827" pageHeight="1169" math="0" shadow="0">
      <root>
        <mxCell id="0" />
        <mxCell id="1" parent="0" />
        <mxCell id="gjKBegEQJJ1bei-PRjIH-23" style="edgeStyle=orthogonalEdgeStyle;rounded=0;orthogonalLoop=1;jettySize=auto;html=1;exitX=1;exitY=0.5;exitDx=0;exitDy=0;entryX=0.5;entryY=0;entryDx=0;entryDy=0;startArrow=diamond;startFill=1;" parent="1" source="gjKBegEQJJ1bei-PRjIH-2" target="gjKBegEQJJ1bei-PRjIH-16" edge="1">
          <mxGeometry relative="1" as="geometry" />
        </mxCell>
        <mxCell id="gjKBegEQJJ1bei-PRjIH-24" style="edgeStyle=orthogonalEdgeStyle;rounded=0;orthogonalLoop=1;jettySize=auto;html=1;exitX=0;exitY=0.5;exitDx=0;exitDy=0;entryX=0.5;entryY=0;entryDx=0;entryDy=0;startArrow=diamond;startFill=1;" parent="1" source="gjKBegEQJJ1bei-PRjIH-2" target="gjKBegEQJJ1bei-PRjIH-14" edge="1">
          <mxGeometry relative="1" as="geometry" />
        </mxCell>
        <mxCell id="gjKBegEQJJ1bei-PRjIH-2" value="&lt;p style=&quot;margin:0px;margin-top:6px;text-align:center;&quot;&gt;&lt;b&gt;CMS&lt;/b&gt;&lt;/p&gt;&lt;hr&gt;&lt;p style=&quot;text-align: center; margin: 0px 0px 0px 8px;&quot;&gt;Common Content&lt;/p&gt;" style="align=left;overflow=fill;html=1;dropTarget=0;whiteSpace=wrap;" parent="1" vertex="1">
          <mxGeometry x="355" y="30" width="180" height="60" as="geometry" />
        </mxCell>
        <mxCell id="gjKBegEQJJ1bei-PRjIH-3" value="" style="shape=component;jettyWidth=8;jettyHeight=4;" parent="gjKBegEQJJ1bei-PRjIH-2" vertex="1">
          <mxGeometry x="1" width="20" height="20" relative="1" as="geometry">
            <mxPoint x="-24" y="4" as="offset" />
          </mxGeometry>
        </mxCell>
        <mxCell id="gjKBegEQJJ1bei-PRjIH-4" value="&lt;p style=&quot;margin:0px;margin-top:6px;text-align:center;&quot;&gt;&lt;b&gt;Web Page&amp;nbsp;&lt;/b&gt;&lt;/p&gt;&lt;hr&gt;&lt;p style=&quot;text-align: center; margin: 0px 0px 0px 8px;&quot;&gt;Main page&lt;/p&gt;" style="align=left;overflow=fill;html=1;dropTarget=0;whiteSpace=wrap;" parent="1" vertex="1">
          <mxGeometry x="90" y="520" width="130" height="70" as="geometry" />
        </mxCell>
        <mxCell id="gjKBegEQJJ1bei-PRjIH-10" style="edgeStyle=orthogonalEdgeStyle;rounded=0;orthogonalLoop=1;jettySize=auto;html=1;entryX=0.5;entryY=0;entryDx=0;entryDy=0;" parent="1" source="gjKBegEQJJ1bei-PRjIH-14" target="gjKBegEQJJ1bei-PRjIH-20" edge="1">
          <mxGeometry relative="1" as="geometry" />
        </mxCell>
        <mxCell id="gjKBegEQJJ1bei-PRjIH-11" style="edgeStyle=orthogonalEdgeStyle;rounded=0;orthogonalLoop=1;jettySize=auto;html=1;exitX=0.25;exitY=1;exitDx=0;exitDy=0;entryX=0.5;entryY=0;entryDx=0;entryDy=0;" parent="1" source="gjKBegEQJJ1bei-PRjIH-14" target="gjKBegEQJJ1bei-PRjIH-21" edge="1">
          <mxGeometry relative="1" as="geometry" />
        </mxCell>
        <mxCell id="gjKBegEQJJ1bei-PRjIH-12" style="edgeStyle=orthogonalEdgeStyle;rounded=0;orthogonalLoop=1;jettySize=auto;html=1;exitX=0.75;exitY=1;exitDx=0;exitDy=0;entryX=0.5;entryY=0;entryDx=0;entryDy=0;" parent="1" source="gjKBegEQJJ1bei-PRjIH-14" target="gjKBegEQJJ1bei-PRjIH-19" edge="1">
          <mxGeometry relative="1" as="geometry">
            <Array as="points">
              <mxPoint x="290" y="240" />
              <mxPoint x="290" y="280" />
              <mxPoint x="325" y="280" />
            </Array>
          </mxGeometry>
        </mxCell>
        <mxCell id="gjKBegEQJJ1bei-PRjIH-14" value="&lt;p style=&quot;margin:0px;margin-top:6px;text-align:center;&quot;&gt;&lt;b&gt;Menu&lt;/b&gt;&lt;/p&gt;&lt;hr&gt;&lt;p style=&quot;text-align: center; margin: 0px 0px 0px 8px;&quot;&gt;Menu&lt;/p&gt;" style="align=left;overflow=fill;html=1;dropTarget=0;whiteSpace=wrap;" parent="1" vertex="1">
          <mxGeometry x="210" y="180" width="110" height="60" as="geometry" />
        </mxCell>
        <mxCell id="gjKBegEQJJ1bei-PRjIH-15" value="" style="shape=component;jettyWidth=8;jettyHeight=4;" parent="gjKBegEQJJ1bei-PRjIH-14" vertex="1">
          <mxGeometry x="1" width="20" height="20" relative="1" as="geometry">
            <mxPoint x="-24" y="4" as="offset" />
          </mxGeometry>
        </mxCell>
        <mxCell id="gjKBegEQJJ1bei-PRjIH-16" value="&lt;p style=&quot;margin:0px;margin-top:6px;text-align:center;&quot;&gt;&lt;b&gt;Entry&lt;/b&gt;&lt;/p&gt;&lt;p style=&quot;margin:0px;margin-top:6px;text-align:center;&quot;&gt;&lt;b&gt;footer&lt;/b&gt;&lt;/p&gt;&lt;hr&gt;&lt;p style=&quot;margin: 0px 0px 0px 8px;&quot;&gt;- University information&lt;/p&gt;&lt;p style=&quot;margin: 0px 0px 0px 8px;&quot;&gt;- Contact information&lt;/p&gt;&lt;p style=&quot;margin: 0px 0px 0px 8px;&quot;&gt;&lt;br&gt;&lt;/p&gt;" style="align=left;overflow=fill;html=1;dropTarget=0;whiteSpace=wrap;" parent="1" vertex="1">
          <mxGeometry x="640" y="180" width="180" height="100" as="geometry" />
        </mxCell>
        <mxCell id="gjKBegEQJJ1bei-PRjIH-17" value="" style="shape=component;jettyWidth=8;jettyHeight=4;" parent="gjKBegEQJJ1bei-PRjIH-16" vertex="1">
          <mxGeometry x="1" width="20" height="20" relative="1" as="geometry">
            <mxPoint x="-24" y="4" as="offset" />
          </mxGeometry>
        </mxCell>
        <mxCell id="gjKBegEQJJ1bei-PRjIH-31" style="edgeStyle=orthogonalEdgeStyle;rounded=0;orthogonalLoop=1;jettySize=auto;html=1;exitX=0.5;exitY=1;exitDx=0;exitDy=0;entryX=0.5;entryY=0;entryDx=0;entryDy=0;" parent="1" source="gjKBegEQJJ1bei-PRjIH-19" target="gjKBegEQJJ1bei-PRjIH-26" edge="1">
          <mxGeometry relative="1" as="geometry">
            <Array as="points">
              <mxPoint x="325" y="440" />
              <mxPoint x="565" y="440" />
            </Array>
          </mxGeometry>
        </mxCell>
        <mxCell id="gjKBegEQJJ1bei-PRjIH-19" value="&lt;p style=&quot;margin:0px;margin-top:6px;text-align:center;&quot;&gt;&lt;b&gt;menu item&lt;/b&gt;&lt;/p&gt;&lt;hr&gt;&lt;p style=&quot;text-align: center; margin: 0px 0px 0px 8px;&quot;&gt;Reviewer Portal&lt;/p&gt;" style="align=left;overflow=fill;html=1;dropTarget=0;whiteSpace=wrap;" parent="1" vertex="1">
          <mxGeometry x="280" y="320" width="90" height="70" as="geometry" />
        </mxCell>
        <mxCell id="gjKBegEQJJ1bei-PRjIH-29" style="edgeStyle=orthogonalEdgeStyle;rounded=0;orthogonalLoop=1;jettySize=auto;html=1;exitX=0.5;exitY=1;exitDx=0;exitDy=0;entryX=0.5;entryY=0;entryDx=0;entryDy=0;" parent="1" source="gjKBegEQJJ1bei-PRjIH-20" target="gjKBegEQJJ1bei-PRjIH-4" edge="1">
          <mxGeometry relative="1" as="geometry" />
        </mxCell>
        <mxCell id="gjKBegEQJJ1bei-PRjIH-20" value="&lt;p style=&quot;margin:0px;margin-top:6px;text-align:center;&quot;&gt;&lt;b&gt;menu item&lt;/b&gt;&lt;/p&gt;&lt;hr&gt;&lt;p style=&quot;text-align: center; margin: 0px 0px 0px 8px;&quot;&gt;Main page&lt;/p&gt;" style="align=left;overflow=fill;html=1;dropTarget=0;whiteSpace=wrap;" parent="1" vertex="1">
          <mxGeometry x="40" y="320" width="90" height="70" as="geometry" />
        </mxCell>
        <mxCell id="gjKBegEQJJ1bei-PRjIH-30" style="edgeStyle=orthogonalEdgeStyle;rounded=0;orthogonalLoop=1;jettySize=auto;html=1;exitX=0.5;exitY=1;exitDx=0;exitDy=0;entryX=0.5;entryY=0;entryDx=0;entryDy=0;" parent="1" source="gjKBegEQJJ1bei-PRjIH-21" target="gjKBegEQJJ1bei-PRjIH-25" edge="1">
          <mxGeometry relative="1" as="geometry" />
        </mxCell>
        <mxCell id="gjKBegEQJJ1bei-PRjIH-21" value="&lt;p style=&quot;margin:0px;margin-top:6px;text-align:center;&quot;&gt;&lt;b&gt;menu item&lt;/b&gt;&lt;/p&gt;&lt;hr&gt;&lt;p style=&quot;text-align: center; margin: 0px 0px 0px 8px;&quot;&gt;Author Portal&lt;/p&gt;" style="align=left;overflow=fill;html=1;dropTarget=0;whiteSpace=wrap;" parent="1" vertex="1">
          <mxGeometry x="160" y="320" width="90" height="70" as="geometry" />
        </mxCell>
        <mxCell id="6IcT4b_ZysT2Kh-LikMN-26" style="edgeStyle=orthogonalEdgeStyle;rounded=0;orthogonalLoop=1;jettySize=auto;html=1;exitX=0.5;exitY=1;exitDx=0;exitDy=0;entryX=0.5;entryY=0;entryDx=0;entryDy=0;" edge="1" parent="1" source="gjKBegEQJJ1bei-PRjIH-25" target="6IcT4b_ZysT2Kh-LikMN-21">
          <mxGeometry relative="1" as="geometry" />
        </mxCell>
        <mxCell id="6IcT4b_ZysT2Kh-LikMN-27" style="edgeStyle=orthogonalEdgeStyle;rounded=0;orthogonalLoop=1;jettySize=auto;html=1;exitX=0.5;exitY=1;exitDx=0;exitDy=0;entryX=0.5;entryY=0;entryDx=0;entryDy=0;" edge="1" parent="1" source="gjKBegEQJJ1bei-PRjIH-25" target="6IcT4b_ZysT2Kh-LikMN-22">
          <mxGeometry relative="1" as="geometry" />
        </mxCell>
        <mxCell id="6IcT4b_ZysT2Kh-LikMN-28" style="edgeStyle=orthogonalEdgeStyle;rounded=0;orthogonalLoop=1;jettySize=auto;html=1;exitX=0.5;exitY=1;exitDx=0;exitDy=0;" edge="1" parent="1" source="gjKBegEQJJ1bei-PRjIH-25" target="6IcT4b_ZysT2Kh-LikMN-25">
          <mxGeometry relative="1" as="geometry" />
        </mxCell>
        <mxCell id="gjKBegEQJJ1bei-PRjIH-25" value="&lt;p style=&quot;margin:0px;margin-top:6px;text-align:center;&quot;&gt;&lt;b&gt;Web Page&amp;nbsp;&lt;/b&gt;&lt;/p&gt;&lt;hr&gt;&lt;p style=&quot;text-align: center; margin: 0px 0px 0px 8px;&quot;&gt;Author Portal&lt;/p&gt;" style="align=left;overflow=fill;html=1;dropTarget=0;whiteSpace=wrap;" parent="1" vertex="1">
          <mxGeometry x="310" y="520" width="130" height="70" as="geometry" />
        </mxCell>
        <mxCell id="6IcT4b_ZysT2Kh-LikMN-16" style="edgeStyle=orthogonalEdgeStyle;rounded=0;orthogonalLoop=1;jettySize=auto;html=1;exitX=0.75;exitY=0;exitDx=0;exitDy=0;entryX=0;entryY=0.25;entryDx=0;entryDy=0;dashed=1;dashPattern=1 2;endArrow=none;endFill=0;startArrow=classic;startFill=1;" edge="1" parent="1" source="gjKBegEQJJ1bei-PRjIH-26" target="6IcT4b_ZysT2Kh-LikMN-3">
          <mxGeometry relative="1" as="geometry" />
        </mxCell>
        <mxCell id="6IcT4b_ZysT2Kh-LikMN-32" style="edgeStyle=orthogonalEdgeStyle;rounded=0;orthogonalLoop=1;jettySize=auto;html=1;exitX=0.5;exitY=1;exitDx=0;exitDy=0;" edge="1" parent="1" source="gjKBegEQJJ1bei-PRjIH-26" target="6IcT4b_ZysT2Kh-LikMN-29">
          <mxGeometry relative="1" as="geometry" />
        </mxCell>
        <mxCell id="6IcT4b_ZysT2Kh-LikMN-33" style="edgeStyle=orthogonalEdgeStyle;rounded=0;orthogonalLoop=1;jettySize=auto;html=1;exitX=0.5;exitY=1;exitDx=0;exitDy=0;" edge="1" parent="1" source="gjKBegEQJJ1bei-PRjIH-26" target="6IcT4b_ZysT2Kh-LikMN-30">
          <mxGeometry relative="1" as="geometry" />
        </mxCell>
        <mxCell id="6IcT4b_ZysT2Kh-LikMN-34" style="edgeStyle=orthogonalEdgeStyle;rounded=0;orthogonalLoop=1;jettySize=auto;html=1;exitX=0.5;exitY=1;exitDx=0;exitDy=0;entryX=0.5;entryY=0;entryDx=0;entryDy=0;" edge="1" parent="1" source="gjKBegEQJJ1bei-PRjIH-26" target="6IcT4b_ZysT2Kh-LikMN-31">
          <mxGeometry relative="1" as="geometry" />
        </mxCell>
        <mxCell id="gjKBegEQJJ1bei-PRjIH-26" value="&lt;p style=&quot;margin:0px;margin-top:6px;text-align:center;&quot;&gt;&lt;b&gt;Web Page&amp;nbsp;&lt;/b&gt;&lt;/p&gt;&lt;hr&gt;&lt;p style=&quot;text-align: center; margin: 0px 0px 0px 8px;&quot;&gt;Reviewer Portal&lt;/p&gt;" style="align=left;overflow=fill;html=1;dropTarget=0;whiteSpace=wrap;" parent="1" vertex="1">
          <mxGeometry x="500" y="520" width="130" height="70" as="geometry" />
        </mxCell>
        <mxCell id="6IcT4b_ZysT2Kh-LikMN-15" style="edgeStyle=orthogonalEdgeStyle;rounded=0;orthogonalLoop=1;jettySize=auto;html=1;exitX=0;exitY=0.25;exitDx=0;exitDy=0;entryX=0.75;entryY=0;entryDx=0;entryDy=0;dashed=1;dashPattern=1 4;" edge="1" parent="1" source="6IcT4b_ZysT2Kh-LikMN-3" target="gjKBegEQJJ1bei-PRjIH-25">
          <mxGeometry relative="1" as="geometry" />
        </mxCell>
        <mxCell id="6IcT4b_ZysT2Kh-LikMN-48" style="edgeStyle=orthogonalEdgeStyle;rounded=0;orthogonalLoop=1;jettySize=auto;html=1;exitX=0.75;exitY=1;exitDx=0;exitDy=0;entryX=1;entryY=0.5;entryDx=0;entryDy=0;dashed=1;dashPattern=1 2;" edge="1" parent="1" source="6IcT4b_ZysT2Kh-LikMN-3" target="6IcT4b_ZysT2Kh-LikMN-31">
          <mxGeometry relative="1" as="geometry">
            <Array as="points">
              <mxPoint x="840" y="540" />
              <mxPoint x="840" y="755" />
            </Array>
          </mxGeometry>
        </mxCell>
        <mxCell id="6IcT4b_ZysT2Kh-LikMN-3" value="&lt;p style=&quot;margin:0px;margin-top:6px;text-align:center;&quot;&gt;&lt;b&gt;&amp;lt;&amp;lt;Tool&amp;gt;&amp;gt;&amp;nbsp;&lt;/b&gt;&lt;/p&gt;&lt;hr&gt;&lt;p style=&quot;text-align: center; margin: 0px 0px 0px 8px;&quot;&gt;&lt;span style=&quot;background-color: initial;&quot;&gt;Session Manager&lt;/span&gt;&lt;span style=&quot;font-family: Roboto, Helvetica, Arial, sans-serif; position: relative; display: inline-flex; color: rgb(26, 38, 51); font-size: medium; text-align: start; background-color: rgb(31, 31, 31);&quot; class=&quot;translation-list__item-wrapper ng-star-inserted&quot;&gt;&lt;/span&gt;&lt;/p&gt;&lt;div style=&quot;text-align: center;&quot;&gt;&lt;br&gt;&lt;/div&gt;" style="align=left;overflow=fill;html=1;dropTarget=0;whiteSpace=wrap;" vertex="1" parent="1">
          <mxGeometry x="720" y="470" width="120" height="70" as="geometry" />
        </mxCell>
        <mxCell id="6IcT4b_ZysT2Kh-LikMN-13" style="edgeStyle=orthogonalEdgeStyle;rounded=0;orthogonalLoop=1;jettySize=auto;html=1;exitX=0.25;exitY=1;exitDx=0;exitDy=0;entryX=0.75;entryY=0;entryDx=0;entryDy=0;endArrow=none;endFill=0;startArrow=diamond;startFill=1;" edge="1" parent="1" source="6IcT4b_ZysT2Kh-LikMN-5" target="6IcT4b_ZysT2Kh-LikMN-3">
          <mxGeometry relative="1" as="geometry" />
        </mxCell>
        <mxCell id="6IcT4b_ZysT2Kh-LikMN-5" value="&lt;p style=&quot;margin:0px;margin-top:6px;text-align:center;&quot;&gt;&lt;b&gt;Web Page&amp;nbsp;&lt;/b&gt;&lt;/p&gt;&lt;hr&gt;&lt;p style=&quot;text-align: center; margin: 0px 0px 0px 8px;&quot;&gt;Login&lt;/p&gt;" style="align=left;overflow=fill;html=1;dropTarget=0;whiteSpace=wrap;" vertex="1" parent="1">
          <mxGeometry x="800" y="360" width="130" height="70" as="geometry" />
        </mxCell>
        <mxCell id="6IcT4b_ZysT2Kh-LikMN-14" style="edgeStyle=orthogonalEdgeStyle;rounded=0;orthogonalLoop=1;jettySize=auto;html=1;exitX=0.75;exitY=1;exitDx=0;exitDy=0;entryX=0.25;entryY=0;entryDx=0;entryDy=0;endArrow=none;endFill=0;startArrow=diamond;startFill=1;" edge="1" parent="1" source="6IcT4b_ZysT2Kh-LikMN-6" target="6IcT4b_ZysT2Kh-LikMN-3">
          <mxGeometry relative="1" as="geometry" />
        </mxCell>
        <mxCell id="6IcT4b_ZysT2Kh-LikMN-6" value="&lt;p style=&quot;margin:0px;margin-top:6px;text-align:center;&quot;&gt;&lt;b&gt;Web Page&amp;nbsp;&lt;/b&gt;&lt;/p&gt;&lt;hr&gt;&lt;p style=&quot;text-align: center; margin: 0px 0px 0px 8px;&quot;&gt;Register&lt;/p&gt;" style="align=left;overflow=fill;html=1;dropTarget=0;whiteSpace=wrap;" vertex="1" parent="1">
          <mxGeometry x="630" y="360" width="130" height="70" as="geometry" />
        </mxCell>
        <mxCell id="6IcT4b_ZysT2Kh-LikMN-19" value="&lt;p style=&quot;margin:0px;margin-top:6px;text-align:center;&quot;&gt;&lt;b&gt;Web Page&amp;nbsp;&lt;/b&gt;&lt;/p&gt;&lt;hr&gt;&lt;p style=&quot;text-align: center; margin: 0px 0px 0px 8px;&quot;&gt;Submit Manuscript&lt;/p&gt;" style="align=left;overflow=fill;html=1;dropTarget=0;whiteSpace=wrap;" vertex="1" parent="1">
          <mxGeometry x="225" y="860" width="120" height="70" as="geometry" />
        </mxCell>
        <mxCell id="6IcT4b_ZysT2Kh-LikMN-49" style="edgeStyle=orthogonalEdgeStyle;rounded=0;orthogonalLoop=1;jettySize=auto;html=1;exitX=0.5;exitY=1;exitDx=0;exitDy=0;entryX=0.5;entryY=1;entryDx=0;entryDy=0;startArrow=classic;startFill=1;dashed=1;dashPattern=1 2;" edge="1" parent="1" source="6IcT4b_ZysT2Kh-LikMN-20" target="6IcT4b_ZysT2Kh-LikMN-19">
          <mxGeometry relative="1" as="geometry">
            <Array as="points">
              <mxPoint x="142" y="990" />
              <mxPoint x="285" y="990" />
            </Array>
          </mxGeometry>
        </mxCell>
        <mxCell id="6IcT4b_ZysT2Kh-LikMN-20" value="&lt;p style=&quot;margin:0px;margin-top:6px;text-align:center;&quot;&gt;&lt;b&gt;Web Page&amp;nbsp;&lt;/b&gt;&lt;/p&gt;&lt;hr&gt;&lt;p style=&quot;text-align: center; margin: 0px 0px 0px 8px;&quot;&gt;Author Profile&lt;/p&gt;" style="align=left;overflow=fill;html=1;dropTarget=0;whiteSpace=wrap;" vertex="1" parent="1">
          <mxGeometry x="82" y="860" width="120" height="70" as="geometry" />
        </mxCell>
        <mxCell id="6IcT4b_ZysT2Kh-LikMN-38" style="edgeStyle=orthogonalEdgeStyle;rounded=0;orthogonalLoop=1;jettySize=auto;html=1;exitX=0.25;exitY=1;exitDx=0;exitDy=0;" edge="1" parent="1" source="6IcT4b_ZysT2Kh-LikMN-21" target="6IcT4b_ZysT2Kh-LikMN-20">
          <mxGeometry relative="1" as="geometry" />
        </mxCell>
        <mxCell id="6IcT4b_ZysT2Kh-LikMN-21" value="&lt;p style=&quot;margin:0px;margin-top:6px;text-align:center;&quot;&gt;&lt;b&gt;menu item&lt;/b&gt;&lt;/p&gt;&lt;hr&gt;&lt;p style=&quot;text-align: center; margin: 0px 0px 0px 8px;&quot;&gt;Profile&lt;/p&gt;" style="align=left;overflow=fill;html=1;dropTarget=0;whiteSpace=wrap;" vertex="1" parent="1">
          <mxGeometry x="120" y="720" width="90" height="70" as="geometry" />
        </mxCell>
        <mxCell id="6IcT4b_ZysT2Kh-LikMN-40" style="edgeStyle=orthogonalEdgeStyle;rounded=0;orthogonalLoop=1;jettySize=auto;html=1;exitX=0.5;exitY=1;exitDx=0;exitDy=0;" edge="1" parent="1" source="6IcT4b_ZysT2Kh-LikMN-22" target="6IcT4b_ZysT2Kh-LikMN-19">
          <mxGeometry relative="1" as="geometry" />
        </mxCell>
        <mxCell id="6IcT4b_ZysT2Kh-LikMN-22" value="&lt;p style=&quot;margin:0px;margin-top:6px;text-align:center;&quot;&gt;&lt;b&gt;menu item&lt;/b&gt;&lt;/p&gt;&lt;hr&gt;&lt;p style=&quot;text-align: center; margin: 0px 0px 0px 8px;&quot;&gt;Submit Manuscript&lt;/p&gt;" style="align=left;overflow=fill;html=1;dropTarget=0;whiteSpace=wrap;" vertex="1" parent="1">
          <mxGeometry x="240" y="720" width="90" height="70" as="geometry" />
        </mxCell>
        <mxCell id="6IcT4b_ZysT2Kh-LikMN-25" value="&lt;p style=&quot;margin:0px;margin-top:6px;text-align:center;&quot;&gt;&lt;b&gt;menu item&lt;/b&gt;&lt;/p&gt;&lt;hr&gt;&lt;p style=&quot;text-align: center; margin: 0px 0px 0px 8px;&quot;&gt;Logout&lt;/p&gt;" style="align=left;overflow=fill;html=1;dropTarget=0;whiteSpace=wrap;" vertex="1" parent="1">
          <mxGeometry x="355" y="720" width="90" height="70" as="geometry" />
        </mxCell>
        <mxCell id="6IcT4b_ZysT2Kh-LikMN-46" style="edgeStyle=orthogonalEdgeStyle;rounded=0;orthogonalLoop=1;jettySize=auto;html=1;exitX=0.5;exitY=1;exitDx=0;exitDy=0;" edge="1" parent="1" source="6IcT4b_ZysT2Kh-LikMN-29" target="6IcT4b_ZysT2Kh-LikMN-43">
          <mxGeometry relative="1" as="geometry" />
        </mxCell>
        <mxCell id="6IcT4b_ZysT2Kh-LikMN-29" value="&lt;p style=&quot;margin:0px;margin-top:6px;text-align:center;&quot;&gt;&lt;b&gt;menu item&lt;/b&gt;&lt;/p&gt;&lt;hr&gt;&lt;p style=&quot;text-align: center; margin: 0px 0px 0px 8px;&quot;&gt;Profile&lt;/p&gt;" style="align=left;overflow=fill;html=1;dropTarget=0;whiteSpace=wrap;" vertex="1" parent="1">
          <mxGeometry x="475" y="720" width="90" height="70" as="geometry" />
        </mxCell>
        <mxCell id="6IcT4b_ZysT2Kh-LikMN-44" style="edgeStyle=orthogonalEdgeStyle;rounded=0;orthogonalLoop=1;jettySize=auto;html=1;exitX=0.5;exitY=1;exitDx=0;exitDy=0;" edge="1" parent="1" source="6IcT4b_ZysT2Kh-LikMN-30" target="6IcT4b_ZysT2Kh-LikMN-42">
          <mxGeometry relative="1" as="geometry" />
        </mxCell>
        <mxCell id="6IcT4b_ZysT2Kh-LikMN-30" value="&lt;p style=&quot;margin:0px;margin-top:6px;text-align:center;&quot;&gt;&lt;b&gt;menu item&lt;/b&gt;&lt;/p&gt;&lt;hr&gt;&lt;p style=&quot;text-align: center; margin: 0px 0px 0px 8px;&quot;&gt;&amp;nbsp;Review Manuscript&lt;/p&gt;" style="align=left;overflow=fill;html=1;dropTarget=0;whiteSpace=wrap;" vertex="1" parent="1">
          <mxGeometry x="611" y="720" width="90" height="70" as="geometry" />
        </mxCell>
        <mxCell id="6IcT4b_ZysT2Kh-LikMN-31" value="&lt;p style=&quot;margin:0px;margin-top:6px;text-align:center;&quot;&gt;&lt;b&gt;menu item&lt;/b&gt;&lt;/p&gt;&lt;hr&gt;&lt;p style=&quot;text-align: center; margin: 0px 0px 0px 8px;&quot;&gt;Logout&lt;/p&gt;" style="align=left;overflow=fill;html=1;dropTarget=0;whiteSpace=wrap;" vertex="1" parent="1">
          <mxGeometry x="730" y="720" width="90" height="70" as="geometry" />
        </mxCell>
        <mxCell id="6IcT4b_ZysT2Kh-LikMN-42" value="&lt;p style=&quot;margin:0px;margin-top:6px;text-align:center;&quot;&gt;&lt;b&gt;Web Page&amp;nbsp;&lt;/b&gt;&lt;/p&gt;&lt;hr&gt;&lt;p style=&quot;text-align: center; margin: 0px 0px 0px 8px;&quot;&gt;Review Manuscript&lt;/p&gt;" style="align=left;overflow=fill;html=1;dropTarget=0;whiteSpace=wrap;" vertex="1" parent="1">
          <mxGeometry x="596" y="860" width="120" height="70" as="geometry" />
        </mxCell>
        <mxCell id="6IcT4b_ZysT2Kh-LikMN-50" style="edgeStyle=orthogonalEdgeStyle;rounded=0;orthogonalLoop=1;jettySize=auto;html=1;exitX=0.5;exitY=1;exitDx=0;exitDy=0;entryX=0.5;entryY=1;entryDx=0;entryDy=0;startArrow=classic;startFill=1;dashed=1;dashPattern=1 2;" edge="1" parent="1" source="6IcT4b_ZysT2Kh-LikMN-43" target="6IcT4b_ZysT2Kh-LikMN-42">
          <mxGeometry relative="1" as="geometry">
            <Array as="points">
              <mxPoint x="520" y="990" />
              <mxPoint x="656" y="990" />
            </Array>
          </mxGeometry>
        </mxCell>
        <mxCell id="6IcT4b_ZysT2Kh-LikMN-43" value="&lt;p style=&quot;margin:0px;margin-top:6px;text-align:center;&quot;&gt;&lt;b&gt;Web Page&amp;nbsp;&lt;/b&gt;&lt;/p&gt;&lt;hr&gt;&lt;p style=&quot;text-align: center; margin: 0px 0px 0px 8px;&quot;&gt;Reviewer Profile&lt;/p&gt;" style="align=left;overflow=fill;html=1;dropTarget=0;whiteSpace=wrap;" vertex="1" parent="1">
          <mxGeometry x="460" y="860" width="120" height="70" as="geometry" />
        </mxCell>
        <mxCell id="6IcT4b_ZysT2Kh-LikMN-47" style="edgeStyle=orthogonalEdgeStyle;rounded=0;orthogonalLoop=1;jettySize=auto;html=1;entryX=0.75;entryY=0;entryDx=0;entryDy=0;dashed=1;dashPattern=1 4;" edge="1" parent="1">
          <mxGeometry relative="1" as="geometry">
            <mxPoint x="814" y="540" as="sourcePoint" />
            <mxPoint x="416.5" y="720" as="targetPoint" />
            <Array as="points">
              <mxPoint x="814" y="540" />
              <mxPoint x="814" y="630" />
              <mxPoint x="417" y="630" />
            </Array>
          </mxGeometry>
        </mxCell>
        <mxCell id="6IcT4b_ZysT2Kh-LikMN-55" style="edgeStyle=orthogonalEdgeStyle;rounded=0;orthogonalLoop=1;jettySize=auto;html=1;exitX=0.5;exitY=0;exitDx=0;exitDy=0;endArrow=none;endFill=0;dashed=1;dashPattern=1 2;" edge="1" parent="1" source="6IcT4b_ZysT2Kh-LikMN-52">
          <mxGeometry relative="1" as="geometry">
            <mxPoint x="590" y="990" as="targetPoint" />
          </mxGeometry>
        </mxCell>
        <mxCell id="6IcT4b_ZysT2Kh-LikMN-56" style="edgeStyle=orthogonalEdgeStyle;rounded=0;orthogonalLoop=1;jettySize=auto;html=1;exitX=0.5;exitY=0;exitDx=0;exitDy=0;endArrow=none;endFill=0;dashed=1;dashPattern=1 2;" edge="1" parent="1" source="6IcT4b_ZysT2Kh-LikMN-52">
          <mxGeometry relative="1" as="geometry">
            <mxPoint x="210" y="990.0000000000002" as="targetPoint" />
          </mxGeometry>
        </mxCell>
        <mxCell id="6IcT4b_ZysT2Kh-LikMN-52" value="&lt;p style=&quot;margin:0px;margin-top:6px;text-align:center;&quot;&gt;&lt;b&gt;&amp;lt;&amp;lt;Tool&amp;gt;&amp;gt;&amp;nbsp;&lt;/b&gt;&lt;/p&gt;&lt;hr&gt;&lt;p style=&quot;text-align: center; margin: 0px 0px 0px 8px;&quot;&gt;Database&lt;span style=&quot;font-family: Roboto, Helvetica, Arial, sans-serif; position: relative; display: inline-flex; color: rgb(26, 38, 51); font-size: medium; text-align: start; background-color: rgb(31, 31, 31);&quot; class=&quot;translation-list__item-wrapper ng-star-inserted&quot;&gt;&lt;/span&gt;&lt;/p&gt;&lt;div style=&quot;text-align: center;&quot;&gt;&lt;br&gt;&lt;/div&gt;" style="align=left;overflow=fill;html=1;dropTarget=0;whiteSpace=wrap;" vertex="1" parent="1">
          <mxGeometry x="345" y="1070" width="120" height="70" as="geometry" />
        </mxCell>
        <mxCell id="6IcT4b_ZysT2Kh-LikMN-67" style="edgeStyle=orthogonalEdgeStyle;rounded=0;orthogonalLoop=1;jettySize=auto;html=1;exitX=1;exitY=0.25;exitDx=0;exitDy=0;entryX=0.25;entryY=1;entryDx=0;entryDy=0;dashed=1;" edge="1" parent="1" source="6IcT4b_ZysT2Kh-LikMN-57" target="gjKBegEQJJ1bei-PRjIH-2">
          <mxGeometry relative="1" as="geometry" />
        </mxCell>
        <mxCell id="6IcT4b_ZysT2Kh-LikMN-68" value="Read/Write" style="edgeLabel;html=1;align=center;verticalAlign=middle;resizable=0;points=[];" vertex="1" connectable="0" parent="6IcT4b_ZysT2Kh-LikMN-67">
          <mxGeometry x="-0.4414" y="-1" relative="1" as="geometry">
            <mxPoint as="offset" />
          </mxGeometry>
        </mxCell>
        <mxCell id="6IcT4b_ZysT2Kh-LikMN-57" value="&amp;lt;&amp;lt;Rol&amp;gt;&amp;gt;&lt;br&gt;Admin" style="rounded=0;whiteSpace=wrap;html=1;" vertex="1" parent="1">
          <mxGeometry x="10" y="150" width="90" height="40" as="geometry" />
        </mxCell>
        <mxCell id="6IcT4b_ZysT2Kh-LikMN-63" style="edgeStyle=orthogonalEdgeStyle;rounded=0;orthogonalLoop=1;jettySize=auto;html=1;exitX=1;exitY=0.25;exitDx=0;exitDy=0;entryX=0.145;entryY=1.043;entryDx=0;entryDy=0;dashed=1;entryPerimeter=0;" edge="1" parent="1" source="6IcT4b_ZysT2Kh-LikMN-65" target="gjKBegEQJJ1bei-PRjIH-2">
          <mxGeometry relative="1" as="geometry">
            <mxPoint x="365" y="55" as="targetPoint" />
          </mxGeometry>
        </mxCell>
        <mxCell id="6IcT4b_ZysT2Kh-LikMN-64" value="Read" style="edgeLabel;html=1;align=center;verticalAlign=middle;resizable=0;points=[];" vertex="1" connectable="0" parent="6IcT4b_ZysT2Kh-LikMN-63">
          <mxGeometry x="-0.0815" y="-1" relative="1" as="geometry">
            <mxPoint x="-35" as="offset" />
          </mxGeometry>
        </mxCell>
        <mxCell id="6IcT4b_ZysT2Kh-LikMN-65" value="&amp;lt;&amp;lt;Rol&amp;gt;&amp;gt;&lt;br&gt;User" style="rounded=0;whiteSpace=wrap;html=1;" vertex="1" parent="1">
          <mxGeometry x="10" y="100" width="90" height="40" as="geometry" />
        </mxCell>
      </root>
    </mxGraphModel>
  </diagram>
</mxfile>
